{"title":"Life.In.The.Undergrowth.2005.HQ.720p.x264.AC3.[FrOnkY]","uid":12212874,"size":8655748732,"categoryP":"video","categoryS":"hd___tv_shows","magnet":"?xt=urn:btih:236569f28cb6901235bb7727e4a7ad55caf3d7f7&amp;dn=Life.In.The.Undergrowth.2005.HQ.720p.x264.AC3.%5BFrOnkY%5D&amp;tr=udp%3A%2F%2Ftracker.openbittorrent.com%3A80&amp;tr=udp%3A%2F%2Fopen.demonii.com%3A1337&amp;tr=udp%3A%2F%2Ftracker.coppersurfer.tk%3A6969&amp;tr=udp%3A%2F%2Fexodus.desync.com%3A6969","seeders":0,"leechers":2,"uploader":"HDmEntEs","files":1,"time":1439160949,"description":"Life.In.The.Undergrowth.2005.HQ.720p.x264.AC3.[FrOnkY].mkv\n\n\nFormat                                   : Matroska\nFormat version                           : Version 4 / Version 2\nFile size                                : 8.06 GiB\nDuration                                 : 4h 3mn\nOverall bit rate                         : 4 742 Kbps\nEncoded date                             : UTC 2015-08-02 17:14:25\nWriting application                      : mkvmerge v6.9.1 ('Blue Panther')\nWriting library                          : libebml v1.3.0 + libmatroska v1.4.1\nAttachements                             : LifeUndergrowth.jpg\n\nVideo\nID                                       : 1\nFormat                                   : AVC\nFormat/Info                              : Advanced Video Codec\nFormat profile                           : High L4.1\nFormat settings, CABAC                   : Yes\nFormat settings, ReFrames                : 9 frames\nCodec ID                                 : V_MPEG4/ISO/AVC\nDuration                                 : 4h 3mn\nBit rate                                 : 4 321 Kbps\nWidth                                    : 1 280 pixels\nHeight                                   : 720 pixels\nDisplay aspect ratio                     : 16:9\nFrame rate mode                          : Constant\nFrame rate                               : 25.000 fps\nColor space                              : YUV\nChroma subsampling                       : 4:2:0\nBit depth                                : 8 bits\nScan type                                : Progressive\nBits/(Pixel*Frame)                       : 0.188\nStream size                              : 7.25 GiB (90%)\nWriting library                          : x264 core 146 r2538 121396c\nLanguage                                 : English\nDefault                                  : Yes\nForced                                   : No\n\nAudio #1\nID                                       : 2\nFormat                                   : AC-3\nFormat/Info                              : Audio Coding 3\nMode extension                           : CM (complete main)\nFormat settings, Endianness              : Big\nCodec ID                                 : A_AC3\nDuration                                 : 4h 3mn\nBit rate mode                            : Constant\nBit rate                                 : 192 Kbps\nChannel(s)                               : 2 channels\nChannel positions                        : Front: L R\nSampling rate                            : 48.0 KHz\nBit depth                                : 16 bits\nStream size                              : 334 MiB (4%)\nLanguage                                 : English\nDefault                                  : Yes\nForced                                   : No\n\nAudio #2\nID                                       : 3\nFormat                                   : AC-3\nFormat/Info                              : Audio Coding 3\nMode extension                           : CM (complete main)\nFormat settings, Endianness              : Big\nCodec ID                                 : A_AC3\nDuration                                 : 4h 3mn\nBit rate mode                            : Constant\nBit rate                                 : 192 Kbps\nChannel(s)                               : 2 channels\nChannel positions                        : Front: L R\nSampling rate                            : 48.0 KHz\nBit depth                                : 16 bits\nStream size                              : 334 MiB (4%)\nLanguage                                 : Spanish\nDefault                                  : No\nForced                                   : No\n\nText #1\nID                                       : 4\nFormat                                   : UTF-8\nCodec ID                                 : S_TEXT/UTF8\nCodec ID/Info                            : UTF-8 Plain Text\nLanguage                                 : Spanish\nDefault                                  : No\nForced                                   : No\n\nText #2\nID                                       : 5\nFormat                                   : UTF-8\nCodec ID                                 : S_TEXT/UTF8\nCodec ID/Info                            : UTF-8 Plain Text\nLanguage                                 : English\nDefault                                  : No\nForced                                   : No\n\nMenu\n00:00:00.000                             : en:Invasion of the Land\n00:07:42.111                             : en:Chapter 02\n00:16:47.666                             : en:Chapter 03\n00:26:06.666                             : en:Chapter 04\n00:35:26.222                             : en:Chapter 05\n00:42:54.777                             : en:Chapter 06\n00:48:41.555                             : en:Taking to the Air\n00:55:51.999                             : en:Chapter 08\n01:04:39.888                             : en:Chapter 09\n01:12:29.555                             : en:Chapter 10\n01:21:19.555                             : en:Chapter 11\n01:29:48.222                             : en:Chapter 12\n01:36:28.666                             : en:The Silk Spinners\n01:43:31.111                             : en:Chapter 14\n01:52:21.333                             : en:Chapter 15\n02:01:07.222                             : en:Chapter 16\n02:08:49.222                             : en:Chapter 17\n02:17:39.555                             : en:Chapter 18\n02:25:10.444                             : en:Intimate Relations\n02:32:05.777                             : en:Chapter 20\n02:41:53.999                             : en:Chapter 21\n02:50:47.222                             : en:Chapter 22\n02:59:27.444                             : en:Chapter 23\n03:07:38.000                             : en:Chapter 24\n03:13:54.999                             : en:Supersocieties\n03:21:03.666                             : en:Chapter 26\n03:29:02.333                             : en:Chapter 27\n03:37:41.888                             : en:Chapter 28\n03:47:07.111                             : en:Chapter 29\n03:55:21.666                             : en:Chapter 30\n\n\nSD - HQ\n &lt;a href=&quot;\nhttp://i.imgur.com/pSz4a8V.jpg&quot; rel=&quot;nofollow&quot; target=&quot;_NEW&quot;&gt;\nhttp://i.imgur.com/pSz4a8V.jpg&lt;/a&gt; &lt;a href=&quot;\nhttp://i.imgur.com/kn9uki4.jpg&quot; rel=&quot;nofollow&quot; target=&quot;_NEW&quot;&gt;\nhttp://i.imgur.com/kn9uki4.jpg&lt;/a&gt;","torrent":{"xt":"urn:btih:236569f28cb6901235bb7727e4a7ad55caf3d7f7","amp;dn":"Life.In.The.Undergrowth.2005.HQ.720p.x264.AC3.%5BFrOnkY%5D","amp;tr":["udp%3A%2F%2Ftracker.openbittorrent.com%3A80","udp%3A%2F%2Fopen.demonii.com%3A1337","udp%3A%2F%2Ftracker.coppersurfer.tk%3A6969","udp%3A%2F%2Fexodus.desync.com%3A6969"],"infoHash":"236569f28cb6901235bb7727e4a7ad55caf3d7f7","infoHashBuffer":{"type":"Buffer","data":[35,101,105,242,140,182,144,18,53,187,119,39,228,167,173,85,202,243,215,247]},"announce":[],"urlList":[]}}